<svg width="124" height="28" viewBox="0 0 124 28" fill="none" xmlns="http://www.w3.org/2000/svg">
<path d="M12 19C14.7614 19 17 16.7614 17 14C17 11.2386 14.7614 9 12 9C9.23858 9 7 11.2386 7 14C7 16.7614 9.23858 19 12 19Z" stroke="#495057" stroke-width="2" stroke-linecap="round" stroke-linejoin="round"/>
<path d="M12 3V5" stroke="#495057" stroke-width="2" stroke-linecap="round" stroke-linejoin="round"/>
<path d="M12 23V25" stroke="#495057" stroke-width="2" stroke-linecap="round" stroke-linejoin="round"/>
<path d="M4.22021 6.21997L5.64021 7.63997" stroke="#495057" stroke-width="2" stroke-linecap="round" stroke-linejoin="round"/>
<path d="M18.3599 20.36L19.7799 21.78" stroke="#495057" stroke-width="2" stroke-linecap="round" stroke-linejoin="round"/>
<path d="M1 14H3" stroke="#495057" stroke-width="2" stroke-linecap="round" stroke-linejoin="round"/>
<path d="M21 14H23" stroke="#495057" stroke-width="2" stroke-linecap="round" stroke-linejoin="round"/>
<path d="M4.22021 21.78L5.64021 20.36" stroke="#495057" stroke-width="2" stroke-linecap="round" stroke-linejoin="round"/>
<path d="M18.3599 7.63997L19.7799 6.21997" stroke="#495057" stroke-width="2" stroke-linecap="round" stroke-linejoin="round"/>
<rect x="36.5" y="0.5" width="51" height="27" rx="13.5" fill="white" stroke="#ACB5BD"/>
<rect x="38" y="2" width="24" height="24" rx="12" fill="#ACB5BD"/>
<path d="M121 14.79C120.843 16.4922 120.204 18.1144 119.158 19.4668C118.113 20.8192 116.703 21.8458 115.096 22.4265C113.488 23.0073 111.748 23.1181 110.079 22.7461C108.411 22.3741 106.883 21.5345 105.674 20.3258C104.465 19.117 103.626 17.589 103.254 15.9205C102.882 14.252 102.993 12.5121 103.573 10.9043C104.154 9.29651 105.181 7.88737 106.533 6.84175C107.885 5.79614 109.508 5.15731 111.21 5C110.213 6.34827 109.734 8.00945 109.858 9.68141C109.983 11.3534 110.704 12.9251 111.889 14.1106C113.075 15.2961 114.647 16.0168 116.318 16.1415C117.99 16.2662 119.652 15.7866 121 14.79V14.79Z" stroke="#ACB5BD" stroke-width="2" stroke-linecap="round" stroke-linejoin="round"/>
</svg>
